 <svg  version="1.0" xmlns="http://www.w3.org/2000/svg"  width="300.000000pt" height="300.000000pt" viewBox="0 0 300.000000 300.000000"  preserveAspectRatio="xMidYMid meet">  <g transform="translate(0.000000,300.000000) scale(0.100000,-0.100000)" fill="#ffffff" stroke="none"> <path d="M1355 2994 c-157 -24 -305 -69 -394 -120 -290 -166 -456 -458 -502 -879 -41 -384 118 -855 467 -1386 223 -339 477 -609 574 -609 64 0 249 165 395 350 146 186 331 484 431 695 171 361 242 668 216 934 -42 429 -209 727 -502 894 -64 37 -171 76 -270 98 -83 19 -344 34 -415 23z m236 -568 c264 -56 430 -317 364 -571 -45 -169 -182 -307 -346 -344 -56 -13 -162 -13 -218 0 -164 37 -301 175 -346 344 -65 252 100 514 359 570 80 17 107 18 187 1z"/> </g> </svg> 