 <svg  version="1.0" xmlns="http://www.w3.org/2000/svg"  width="300.000000pt" height="424.000000pt" viewBox="0 0 300.000000 424.000000"  preserveAspectRatio="xMidYMid meet">  <g transform="translate(0.000000,424.000000) scale(0.100000,-0.100000)" fill="#8f3189" stroke="none"> <path d="M1115 3520 c-146 -9 -205 -18 -210 -33 -2 -7 -43 -401 -90 -877 -47 -476 -88 -880 -91 -897 l-5 -33 105 0 104 0 13 86 c14 97 13 96 113 114 33 5 61 12 63 14 3 2 73 476 73 491 0 1 -42 -3 -92 -7 -51 -4 -99 -5 -106 -3 -10 4 -12 16 -7 48 11 73 12 73 106 108 50 19 94 41 99 49 12 22 60 319 60 372 l0 46 -81 13 c-73 12 -80 15 -75 33 3 12 8 41 12 64 8 50 9 50 95 60 l64 7 21 95 c12 52 28 132 36 178 l15 82 -51 -2 c-28 0 -105 -4 -171 -8z"/> <path d="M1774 3478 c3 -18 10 -85 16 -148 14 -154 16 -160 43 -160 62 -1 67 -7 67 -85 l0 -73 -75 -7 c-87 -8 -82 3 -66 -145 5 -47 13 -131 16 -187 l7 -102 52 -8 51 -8 3 -86 c3 -96 1 -99 -74 -99 -17 0 -46 -3 -64 -7 l-33 -6 8 -231 c5 -156 11 -233 18 -238 7 -4 40 -8 75 -8 72 0 75 -3 87 -106 3 -33 10 -65 13 -71 5 -7 42 -8 122 -1 63 5 116 11 117 12 3 3 -14 641 -27 996 -18 483 -38 771 -56 789 -3 3 -73 8 -155 9 l-150 4 5 -34z"/> <path d="M1503 3478 c-43 -55 -133 -261 -120 -275 4 -3 28 -8 54 -10 47 -5 48 -5 58 28 11 38 53 64 85 54 13 -4 20 -17 22 -43 3 -36 4 -37 47 -40 l44 -3 -7 106 c-11 179 -10 177 -117 190 -41 5 -58 3 -66 -7z"/> <path d="M1374 2763 c-20 -54 -43 -113 -50 -132 -8 -18 -14 -37 -14 -42 0 -5 27 -9 60 -9 51 0 60 3 60 18 0 27 29 62 51 62 34 0 77 -28 91 -60 11 -26 18 -30 43 -28 28 3 30 5 27 43 -2 22 -11 85 -20 140 l-17 100 -97 3 -96 3 -38 -98z"/> <path d="M1435 2101 l-110 -6 -17 -51 c-9 -28 -20 -74 -24 -103 l-7 -51 71 0 c70 0 71 0 92 36 29 45 51 41 70 -14 15 -43 15 -43 60 -40 44 3 45 4 44 35 -3 52 -46 203 -58 201 -6 -1 -60 -4 -121 -7z"/> <path d="M516 1488 c-6 -30 -26 -153 -26 -161 0 -4 11 -7 24 -7 21 0 24 6 31 53 l8 52 15 -52 c20 -70 47 -73 63 -7 13 50 26 48 31 -6 2 -27 8 -36 26 -38 26 -4 27 7 9 113 -11 64 -14 70 -37 70 -20 0 -26 -8 -39 -47 -8 -27 -17 -48 -21 -48 -3 0 -12 23 -19 50 -11 42 -16 50 -37 50 -16 0 -25 -7 -28 -22z"/> <path d="M897 1496 c-9 -22 19 -42 37 -26 19 15 10 40 -14 40 -10 0 -20 -6 -23 -14z"/> <path d="M1114 1495 c-4 -9 -2 -21 4 -27 15 -15 44 -1 40 19 -4 23 -36 29 -44 8z"/> <path d="M750 1430 c-24 -24 -26 -57 -4 -88 21 -31 87 -31 108 0 34 48 4 108 -54 108 -17 0 -39 -9 -50 -20z m73 -32 c7 -21 -4 -38 -23 -38 -10 0 -20 6 -23 13 -7 20 4 37 23 37 10 0 20 -6 23 -12z"/> <path d="M900 1385 c0 -58 2 -65 20 -65 18 0 20 7 20 65 0 58 -2 65 -20 65 -18 0 -20 -7 -20 -65z"/> <path d="M980 1420 l21 -30 -20 -29 c-27 -37 -26 -41 3 -41 16 0 27 7 32 22 l6 21 17 -22 c11 -15 26 -22 40 -19 l23 3 -22 28 c-20 26 -21 31 -9 55 7 15 15 30 17 35 2 4 -7 7 -21 7 -14 0 -28 -7 -32 -17 -6 -17 -7 -17 -16 0 -6 9 -21 17 -35 17 l-25 0 21 -30z"/> <path d="M1110 1385 c0 -63 1 -65 25 -65 24 0 25 2 25 65 0 63 -1 65 -25 65 -24 0 -25 -2 -25 -65z"/> <path d="M1201 1437 c-16 -16 -14 -92 4 -107 8 -7 28 -10 45 -8 21 3 30 0 30 -9 0 -11 -10 -13 -45 -7 -25 3 -45 2 -45 -3 0 -21 27 -33 72 -33 59 0 68 14 68 108 l0 69 -59 1 c-32 0 -63 -4 -70 -11z m83 -41 c9 -13 7 -20 -8 -31 -32 -24 -62 15 -34 43 15 15 28 11 42 -12z"/> <path d="M1371 1437 c-15 -15 -14 -92 2 -105 6 -6 38 -10 70 -10 l57 1 0 62 0 62 -59 1 c-32 0 -63 -4 -70 -11z m83 -40 c16 -25 -16 -56 -38 -37 -19 15 -20 32 -4 48 15 15 28 11 42 -11z"/> <path d="M1530 1384 c0 -62 1 -65 23 -62 18 2 23 11 27 48 3 31 10 45 20 45 11 0 16 -13 18 -47 3 -43 5 -48 28 -48 22 0 24 3 24 53 0 59 -12 77 -50 77 -14 0 -31 -5 -38 -12 -9 -9 -12 -9 -12 0 0 7 -9 12 -20 12 -18 0 -20 -7 -20 -66z"/> <path d="M1705 1427 c-19 -28 -19 -57 1 -86 13 -18 24 -22 50 -19 24 3 34 0 34 -10 0 -10 -10 -12 -45 -6 -25 3 -45 2 -45 -3 0 -20 26 -33 66 -33 58 0 74 24 74 111 l0 67 -60 1 c-50 0 -62 -4 -75 -22z m85 -42 c0 -13 -6 -25 -12 -28 -22 -7 -38 4 -38 28 0 13 6 25 13 28 21 7 37 -4 37 -28z"/> <path d="M1870 1397 c0 -63 11 -77 61 -77 51 0 69 21 69 81 0 46 -2 49 -25 49 -23 0 -25 -3 -25 -51 0 -43 -3 -50 -17 -47 -14 2 -19 15 -21 51 -3 39 -6 47 -23 47 -16 0 -19 -7 -19 -53z"/> <path d="M2046 1434 c-37 -37 -27 -98 18 -110 38 -9 81 -1 81 16 0 11 -9 14 -37 12 -23 -2 -38 1 -38 7 0 6 19 11 45 11 41 0 45 2 45 23 0 49 -78 77 -114 41z m69 -24 c4 -6 -5 -10 -19 -10 -14 0 -26 5 -26 10 0 6 9 10 19 10 11 0 23 -4 26 -10z"/> <path d="M2190 1385 c0 -58 2 -65 19 -65 16 0 20 8 23 38 2 27 9 40 25 47 28 12 38 45 14 45 -9 0 -22 -5 -29 -12 -9 -9 -12 -9 -12 0 0 7 -9 12 -20 12 -18 0 -20 -7 -20 -65z"/> <path d="M2313 1443 c-7 -2 -13 -16 -13 -30 0 -18 8 -28 30 -36 40 -15 38 -29 -2 -25 -24 2 -33 -1 -33 -12 0 -19 70 -26 91 -9 21 17 13 51 -14 65 -35 17 -40 27 -10 22 25 -5 45 12 31 26 -7 7 -63 7 -80 -1z"/> <path d="M840 1176 c0 -34 -1 -35 -34 -29 -27 4 -36 1 -50 -18 -34 -49 -12 -111 40 -110 16 0 41 0 57 0 l27 1 0 95 c0 88 -1 95 -20 95 -16 0 -20 -7 -20 -34z m-5 -96 c0 -38 -39 -35 -43 3 -3 25 0 28 20 25 17 -2 23 -9 23 -28z"/> <path d="M1590 1115 c0 -95 0 -95 25 -95 25 0 25 0 25 95 0 95 0 95 -25 95 -25 0 -25 0 -25 -95z"/> <path d="M1930 1177 c0 -31 -2 -33 -27 -30 -36 5 -61 -14 -69 -54 -5 -26 -1 -37 20 -58 18 -18 32 -25 44 -20 9 4 32 7 50 6 l32 -2 0 96 c0 95 0 95 -25 95 -22 0 -25 -4 -25 -33z m3 -81 c8 -21 -17 -50 -37 -43 -16 6 -22 38 -9 50 11 12 41 7 46 -7z"/> <path d="M920 1174 c-23 -61 5 -77 33 -19 21 45 21 45 -3 45 -13 0 -24 -10 -30 -26z"/> <path d="M1000 1110 c0 -89 0 -90 25 -90 25 0 25 1 25 90 0 89 0 90 -25 90 -25 0 -25 -1 -25 -90z"/> <path d="M1096 1128 c-20 -29 -20 -58 0 -87 13 -18 24 -22 51 -19 26 3 33 1 30 -11 -3 -16 -10 -17 -60 -5 -25 6 -28 4 -25 -12 4 -25 63 -40 100 -25 21 8 28 19 33 53 4 24 5 61 3 83 l-3 40 -57 3 c-49 2 -59 -1 -72 -20z m82 -45 c-2 -20 -9 -28 -23 -28 -14 0 -21 8 -23 28 -3 23 0 27 23 27 23 0 26 -4 23 -27z"/> <path d="M1260 1095 c0 -47 3 -57 25 -71 30 -19 81 -11 95 16 6 10 10 40 10 65 0 42 -2 46 -22 43 -20 -3 -23 -10 -26 -51 -3 -39 -6 -48 -20 -45 -13 2 -18 16 -20 51 -3 39 -6 47 -23 47 -16 0 -19 -7 -19 -55z"/> <path d="M1437 1137 c-9 -6 -20 -26 -23 -44 -5 -26 -1 -37 20 -58 18 -18 32 -25 44 -20 9 4 32 7 50 6 l33 -2 -3 63 -3 63 -51 2 c-28 1 -58 -3 -67 -10z m77 -43 c7 -19 -10 -44 -31 -44 -17 0 -27 24 -19 45 7 20 42 19 50 -1z"/> <path d="M1687 1137 c-9 -6 -20 -26 -23 -44 -5 -26 -1 -37 20 -58 18 -18 32 -25 44 -20 9 4 32 7 50 6 l33 -2 -3 63 -3 63 -51 2 c-28 1 -58 -3 -67 -10z m76 -41 c8 -21 -17 -50 -37 -43 -16 6 -22 38 -9 50 11 12 41 7 46 -7z"/> <path d="M2014 1125 c-34 -52 6 -126 59 -109 12 4 35 6 50 5 l28 -3 -3 64 -3 63 -57 2 c-52 3 -59 0 -74 -22z m84 -42 c-2 -20 -9 -28 -23 -28 -14 0 -21 8 -23 28 -3 23 0 27 23 27 23 0 26 -4 23 -27z"/> </g> </svg> 