 <svg  version="1.0" xmlns="http://www.w3.org/2000/svg"  width="300.000000pt" height="300.000000pt" viewBox="0 0 300.000000 300.000000"  preserveAspectRatio="xMidYMid meet">  <g transform="translate(0.000000,300.000000) scale(0.100000,-0.100000)" fill="#ffffff" stroke="none"> <path d="M483 2982 c-78 -28 -122 -63 -259 -205 -102 -106 -131 -143 -164 -211 -82 -165 -79 -282 15 -517 186 -468 459 -877 816 -1224 331 -322 727 -579 1158 -750 237 -95 352 -98 521 -14 75 37 102 59 227 184 173 172 198 214 198 340 0 98 -29 168 -96 232 -81 77 -474 376 -526 400 -96 44 -124 42 -406 -28 l-255 -63 -40 18 c-26 12 -123 102 -285 265 -202 203 -246 252 -252 281 -4 26 10 100 55 280 68 273 71 308 27 403 -24 52 -322 444 -400 526 -83 88 -224 122 -334 83z m163 -201 c42 -26 392 -478 400 -516 3 -19 -16 -116 -56 -275 -96 -382 -104 -360 263 -728 374 -375 354 -368 737 -272 159 40 256 59 275 56 38 -8 490 -357 517 -400 14 -23 18 -43 15 -75 -5 -41 -14 -53 -138 -178 -151 -151 -201 -182 -301 -190 -75 -6 -146 15 -367 113 -549 242 -1048 659 -1390 1164 -110 162 -212 344 -285 511 -97 220 -119 292 -113 365 8 102 34 144 180 292 73 74 141 138 152 142 34 15 79 11 111 -9z"/> </g> </svg> 